<svg width="512" height="512" xmlns="http://www.w3.org/2000/svg" preserveAspectRatio="xMidYMid meet">
 <defs>
  <linearGradient spreadMethod="pad" y2="1" x2="1" y1="0" x1="0" id="svg_23">
   <stop offset="0" stop-opacity="0.99609" stop-color="#666666"/>
   <stop offset="1" stop-opacity="0.99609" stop-color="#333333"/>
  </linearGradient>
 </defs>
 <g>
  <title>background</title>
  <rect fill="none" id="canvas_background" height="602" width="802" y="-1" x="-1"/>
 </g>
 <g>
  <title>Layer 1</title>
  <g id="svg_19">
   <g id="svg_20">
    <path fill="url(#svg_23)" id="svg_2" d="m24.4094,52.05368l-7.4094,7.73154l0,152.05369c0,151.4094 0,152.05369 7.08725,157.85235c3.54362,3.54362 8.05369,6.12081 9.66443,6.12081c1.28859,0 101.79866,0 223.24832,0c121.44966,0 221.95973,0 223.24832,0c1.61074,0 6.12081,-2.57718 9.66443,-6.12081c7.08725,-5.79866 7.08725,-6.44295 7.08725,-157.85235l0,-152.05369l-8.05369,-7.73154l-7.73154,-8.05369l-224.85906,0.32215l-224.85906,0l-7.08725,7.73154zm254.1745,68.2953c3.22148,2.89933 9.02013,6.7651 12.88591,8.69799c3.54362,1.93289 8.37584,6.44295 10.30872,9.66443c1.93289,3.54362 6.12081,9.02013 9.34228,12.24161c3.22148,3.54362 5.47651,10.95302 5.47651,18.68456c0,12.24161 0.6443,12.88591 9.66443,12.88591c6.44295,0 12.88591,2.89933 18.36242,8.37584c7.73154,7.73154 8.05369,9.66443 6.12081,28.02685c-2.25503,21.58389 -8.05369,32.85906 -19.97315,38.33557c-6.44295,3.22148 -7.73154,5.79866 -7.73154,19.00671c0,10.63087 1.28859,15.78523 5.15436,17.07383c2.89933,0.96644 4.51007,4.83221 3.86577,9.02013l-0.96644,7.4094l-72.48322,0l-72.48322,0l-0.96644,-7.4094c-0.6443,-4.18792 0.96644,-7.73154 3.54362,-9.02013c3.86577,-1.28859 5.47651,-10.95302 7.08725,-41.87919l2.25503,-39.94631l-8.37584,-8.05369c-6.7651,-6.12081 -8.37584,-10.63087 -8.37584,-23.19463c0,-19.00671 4.83221,-26.41611 23.51678,-35.75839c8.05369,-3.86577 16.10738,-9.34228 18.36242,-11.91946c2.25503,-2.57718 5.79866,-4.83221 8.05369,-4.83221c2.25503,0 4.83221,-1.93289 5.79866,-4.51007c1.61074,-4.18792 9.02013,-6.12081 29.31544,-7.73154c3.54362,-0.32215 9.02013,1.61074 12.24161,4.83221z"/>
    <path fill="url(#svg_23)" id="svg_3" d="m261.03409,125.9938c-0.96644,1.93289 -4.83221,2.57718 -8.37584,1.93289c-6.12081,-1.61074 -8.37584,-0.32215 -24.16107,13.85235c-4.18792,3.54362 -8.69799,6.44295 -10.30872,6.44295c-1.93289,0 -8.37584,2.89933 -14.49664,6.7651c-12.24161,7.08725 -17.39597,21.26174 -13.5302,36.72483c3.54362,13.85235 7.73154,9.02013 10.63087,-12.24161l2.57718,-19.97315l50.25503,-1.61074l50.25503,-1.61074l-5.47651,-9.66443c-2.89933,-5.47651 -8.05369,-10.30872 -11.59732,-10.95302c-3.22148,-0.6443 -8.05369,-3.86577 -10.30872,-7.08725c-4.83221,-6.7651 -11.91946,-8.05369 -15.46309,-2.57718z"/>
    <path fill="url(#svg_23)" id="svg_4" d="m206.91328,205.24212c-1.28859,22.87248 -2.89933,51.86577 -3.86577,64.42953l-1.93289,23.51678l58.63087,0l58.63087,0l-1.93289,-23.51678c-0.96644,-12.56376 -2.57718,-41.55705 -3.86577,-64.42953l-1.93289,-40.91275l-50.89933,0l-50.89933,0l-1.93289,40.91275zm72.16107,-31.24832c0,1.93289 -12.88591,3.22148 -32.21477,3.22148c-19.32886,0 -32.21477,-1.28859 -32.21477,-3.22148c0,-1.93289 12.88591,-3.22148 32.21477,-3.22148c19.32886,0 32.21477,1.28859 32.21477,3.22148zm25.77181,0c0,1.61074 -4.18792,3.22148 -9.66443,3.22148c-5.15436,0 -9.66443,-1.61074 -9.66443,-3.22148c0,-1.93289 4.51007,-3.22148 9.66443,-3.22148c5.47651,0 9.66443,1.28859 9.66443,3.22148zm-90.20134,106.30872c0,3.54362 -1.28859,6.44295 -3.22148,6.44295c-1.61074,0 -3.22148,-2.89933 -3.22148,-6.44295c0,-3.54362 1.61074,-6.44295 3.22148,-6.44295c1.93289,0 3.22148,2.89933 3.22148,6.44295zm16.10738,0c0,3.54362 -1.28859,6.44295 -3.22148,6.44295c-1.61074,0 -3.22148,-2.89933 -3.22148,-6.44295c0,-3.54362 1.61074,-6.44295 3.22148,-6.44295c1.93289,0 3.22148,2.89933 3.22148,6.44295zm16.10738,0c0,3.54362 -1.28859,6.44295 -3.22148,6.44295c-1.61074,0 -3.22148,-2.89933 -3.22148,-6.44295c0,-3.54362 1.61074,-6.44295 3.22148,-6.44295c1.93289,0 3.22148,2.89933 3.22148,6.44295zm16.10738,0c0,3.54362 -1.28859,6.44295 -3.22148,6.44295c-1.61074,0 -3.22148,-2.89933 -3.22148,-6.44295c0,-3.54362 1.61074,-6.44295 3.22148,-6.44295c1.93289,0 3.22148,2.89933 3.22148,6.44295zm16.10738,0c0,3.54362 -1.28859,6.44295 -3.22148,6.44295c-1.61074,0 -3.22148,-2.89933 -3.22148,-6.44295c0,-3.54362 1.61074,-6.44295 3.22148,-6.44295c1.93289,0 3.22148,2.89933 3.22148,6.44295zm16.10738,0c0,3.54362 -1.28859,6.44295 -3.22148,6.44295c-1.61074,0 -3.22148,-2.89933 -3.22148,-6.44295c0,-3.54362 1.61074,-6.44295 3.22148,-6.44295c1.93289,0 3.22148,2.89933 3.22148,6.44295zm16.10738,0c0,3.54362 -1.28859,6.44295 -3.22148,6.44295c-1.61074,0 -3.22148,-2.89933 -3.22148,-6.44295c0,-3.54362 1.61074,-6.44295 3.22148,-6.44295c1.93289,0 3.22148,2.89933 3.22148,6.44295z"/>
    <path fill="url(#svg_23)" id="svg_5" d="m320.95355,220.06091c0,16.75168 0.96644,31.24832 1.93289,32.21477c2.89933,2.89933 13.5302,-3.22148 17.07383,-9.98658c1.61074,-2.89933 3.86577,-12.88591 5.15436,-22.22819c1.93289,-14.1745 1.28859,-17.39597 -4.51007,-23.19463c-3.86577,-3.86577 -9.66443,-6.7651 -13.20805,-6.7651c-6.12081,0 -6.44295,2.25503 -6.44295,29.95973z"/>
    <path fill="url(#svg_23)" id="svg_6" d="m192.09449,302.85286c0,1.93289 24.80537,3.22148 67.65101,3.22148c42.84564,0 67.65101,-1.28859 67.65101,-3.22148c0,-1.93289 -24.80537,-3.22148 -67.65101,-3.22148c-42.84564,0 -67.65101,1.28859 -67.65101,3.22148z"/>
    <path fill="url(#svg_23)" id="svg_7" d="m196.28241,404.97366c-0.96644,2.25503 -0.96644,9.66443 -0.6443,16.10738l1.28859,12.24161l-16.75168,-0.96644c-9.34228,-0.6443 -20.9396,0.6443 -26.09396,2.89933c-10.63087,4.51007 -19.97315,19.00671 -19.97315,30.60403l0,7.73154l124.02685,0l124.02685,0l0,-7.73154c0,-11.59732 -9.34228,-26.09396 -19.97315,-30.60403c-5.15436,-2.25503 -16.75168,-3.54362 -26.09396,-2.89933l-16.75168,0.96644l0,-15.46309l0,-15.46309l-60.88591,-0.6443c-46.06711,-0.32215 -61.20805,0.32215 -62.1745,3.22148z"/>
   </g>
  </g>
 </g>
</svg>